/* XPM */
static char *out[] = {
/* columns rows colors chars-per-pixel */
"31 31 49 1 ",
"  c #2B242E",
". c #2A2731",
"X c #2A2832",
"o c #292B35",
"O c #27363F",
"+ c #28313B",
"@ c #263A43",
"# c #253D46",
"$ c #254149",
"% c #25424A",
"& c #24434C",
"* c #234850",
"= c #224E57",
"- c #21545B",
"; c #1E6269",
": c #1D6970",
"> c #197D83",
", c #197F85",
"< c #17858B",
"1 c #17868C",
"2 c #168B91",
"3 c #168D92",
"4 c #168E93",
"5 c #149499",
"6 c #14959A",
"7 c #139A9F",
"8 c #14989C",
"9 c #14989D",
"0 c #0FB0B4",
"q c #0FB1B5",
"w c #0EB7BB",
"e c #0DB9BC",
"r c #0CC6C9",
"t c #0ACCCE",
"y c #0ACFD1",
"u c #0AD0D2",
"i c #09D4D6",
"p c #09D5D7",
"a c #07DDDF",
"s c #07DFE0",
"d c #07E1E2",
"f c #06E5E6",
"g c #04ECED",
"h c #04EDED",
"j c #03F3F3",
"k c #03F3F4",
"l c #01FCFC",
"z c #01FEFE",
"x c #01FFFF",
/* pixels */
"    %67777777777777777777777779",
"  Oezxxxxxxxxxxxxxxxxxxxxxxxxxl",
" +dxxxxxxxxxxxxxxxxxxxxxxxxxxxl",
" 0xxxxxxxxxxxxxxxxxxxxxxxxxxxxl",
"*xxxxxxxxxxxxxxxxxxxxxxxxxxxxxl",
"1xxxxxxxxxxxxxxxxxxxxxxxxxxxxxl",
"5xxxxxhyyyyyyyyyyyyyyyyyyyyyyyt",
"8xxxxxq                        ",
"8xxxxxq                        ",
"8xxxxxq                        ",
"8xxxxxq                        ",
"8xxxxxq                        ",
"8xxxxxr;;;;;;;;;;;;;;;;;;;#    ",
"8xxxxxxxxxxxxxxxxxxxxxxxxxle&  ",
"8xxxxxxxxxxxxxxxxxxxxxxxxxxxj- ",
"8xxxxxxxxxxxxxxxxxxxxxxxxxxxxfo",
"8xxxxxxxxxxxxxxxxxxxxxxxxxxxxx4",
"8xxxxxxxxxxxxxxxxxxxxxxxxxxxxxp",
"8xxxxxhyyyyyyyyyyyyyyyyyixxxxxk",
"8xxxxxq                 $xxxxxl",
"8xxxxxq                 $xxxxxl",
"8xxxxxq                 $xxxxxl",
"8xxxxxq                 $xxxxxl",
"8xxxxxq                 $xxxxxl",
"8xxxxxq                 $xxxxxl",
"3xxxxxxxxxxxxxxxxxxxxxxxxxxxxxj",
":xxxxxxxxxxxxxxxxxxxxxxxxxxxxxu",
"Xgxxxxxxxxxxxxxxxxxxxxxxxxxxxx,",
" <xxxxxxxxxxxxxxxxxxxxxxxxxxxsX",
"  2xxxxxxxxxxxxxxxxxxxxxxxxxi@ ",
"   =wlxxxxxxxxxxxxxxxxxxxxa>.  "
};
