/* XPM */
static char *out[] = {
/* columns rows colors chars-per-pixel */
"64 64 174 2 ",
"   c #66FF00",
".  c #66FF00",
"X  c #66FF00",
"o  c #66FF00",
"O  c #66FF00",
"+  c #66FF00",
"@  c #66FF00",
"#  c #66FF00",
"$  c #66FF00",
"%  c #66FF00",
"&  c #66FF00",
"*  c #66FF00",
"=  c #66FF00",
"-  c #66FF00",
";  c #66FF00",
":  c #66FF00",
">  c #66FF00",
",  c #66FF00",
"<  c #66FF00",
"1  c #66FF00",
"2  c #66FF00",
"3  c #66FF00",
"4  c #66FF00",
"5  c #66FF00",
"6  c #66FF00",
"7  c #66FF00",
"8  c #66FF00",
"9  c #66FF00",
"0  c #66FF00",
"q  c #66FF00",
"w  c #66FF00",
"e  c #66FF00",
"r  c #66FF00",
"t  c #66FF00",
"y  c #66FF00",
"u  c #66FF00",
"i  c #66FF00",
"p  c #66FF00",
"a  c #66FF00",
"s  c #66FF00",
"d  c #66FF00",
"f  c #66FF00",
"g  c #66FF00",
"h  c #66FF00",
"j  c #66FF00",
"k  c #66FF00",
"l  c #66FF00",
"z  c #66FF00",
"x  c #66FF00",
"c  c #66FF00",
"v  c #7F7FF7",
"b  c #BF3FB5",
"n  c #AF4FB5",
"m  c #BB43B5",
"M  c #BE41B5",
"N  c #B846B5",
"B  c #B44AB5",
"V  c #AA54B5",
"C  c #A35BB6",
"Z  c #9D62B6",
"A  c #9569B7",
"S  c #8D71B7",
"D  c #857AB8",
"F  c #EF0FF0",
"G  c #F707F0",
"H  c #FB03F0",
"J  c #FD01F0",
"K  c #FC02F0",
"L  c #F905F0",
"P  c #F509F0",
"I  c #F20CF0",
"U  c #EC11F1",
"Y  c #E915F1",
"T  c #E519F1",
"R  c #E21CF1",
"E  c #DD21F1",
"W  c #D925F2",
"Q  c #D529F2",
"!  c #D02EF2",
"~  c #CB33F3",
"^  c #C638F3",
"/  c #C13DF3",
"(  c #BB43F3",
")  c #B648F4",
"_  c #B04EF4",
"`  c #AA54F4",
"'  c #A45AF5",
"]  c #9E60F5",
"[  c #9866F6",
"{  c #926CF6",
"}  c #8B73F6",
"|  c #8579F7",
" . c #7B83B8",
".. c #728CB9",
"X. c #6996B9",
"o. c #609FBA",
"O. c #57A8BB",
"+. c #4EB1BB",
"@. c #44BABB",
"#. c #66FF00",
"$. c #66FF00",
"%. c #66FF00",
"&. c #66FF00",
"*. c #66FF00",
"=. c #66FF00",
"-. c #66FF00",
";. c #66FF00",
":. c #66FF00",
">. c #66FF00",
",. c #3BC3BC",
"<. c #32CCBD",
"1. c #2AD4BD",
"2. c #23DCBE",
"3. c #01FFA4",
"4. c #01FFAD",
"5. c #1CE2BE",
"6. c #16E8BE",
"7. c #10EEBE",
"8. c #01FFB2",
"9. c #01FFB3",
"0. c #0CF3BF",
"q. c #08F7BF",
"w. c #01FFB9",
"e. c #05FABF",
"r. c #01FFBC",
"t. c #03FDBF",
"y. c #7985F7",
"u. c #738BF8",
"i. c #6797F8",
"p. c #6D91F8",
"a. c #609EF9",
"s. c #4FAFFA",
"d. c #5AA4F9",
"f. c #54AAFA",
"g. c #49B5FA",
"h. c #43BBFB",
"j. c #01FFC1",
"k. c #01FED2",
"l. c #01FFD7",
"z. c #01FED9",
"x. c #3EC0FB",
"c. c #38C6FB",
"v. c #33CBFB",
"b. c #2ED0FC",
"n. c #2AD4FC",
"m. c #25D9FC",
"M. c #21DDFD",
"N. c #01FEE2",
"B. c #01FFE3",
"V. c #01FFE4",
"C. c #01FEE7",
"Z. c #02FDE9",
"A. c #01FEEC",
"S. c #01FEEE",
"D. c #0FEFFE",
"F. c #1DE1FD",
"G. c #19E5FD",
"H. c #16E9FD",
"J. c #12ECFD",
"K. c #0DF2FE",
"L. c #0AF5FE",
"P. c #08F7FE",
"I. c #01FFF8",
"U. c #01FEF9",
"Y. c #01FEFB",
"T. c #06F9FE",
"R. c #04FBFE",
"E. c #02FDFC",
"W. c #02FDFD",
"Q. c #01FEFC",
"!. c #01FEFD",
"~. c #03FCFE",
"^. c #02FDFE",
"/. c #01FEFE",
/* pixels */
". . . . . . . . . . . . + q k c *.r.l.w.I.B.3.B.9.j.B.9.j.B.9.j.B.9.j.B.9.j.B.9.j.3.V.I.w.l.r.=.c j q + . . . . . . . . . . . . ",
". X . . X X @ g -.4.z.A.!.Q.Q././././././././././././././././././././././././././././././././././././.!.S.N.8.l 4 O . . . . . . ",
". . . . # :.Y././././././././././././././././././././././././././././././././././././././././././././././././././.Y.k.w X . . . ",
". . y 9.U.!././././././././././././././././././././././././././././././././././././././././././././././././././././././.C.h . . ",
". u Z.E.^.^.^.^.^.^.^.^.^.^.^.^.^.^.^.^.^.^.^.^.^.^.^.^.^.^.^.^.^.^.^.^.^.^.^.^.^.^.^.^.^.^.^.^.^.^.^.^.^.^.^.^.^.^.^.^.^.W.i . ",
". o t.~.~.~.~.~.~.~.~.~.~.~.~.~.~.~.~.~.~.~.~.~.~.~.~.~.~.~.~.~.~.~.~.~.~.~.~.~.~.~.~.~.~.~.~.~.~.~.~.~.~.~.~.~.~.~.~.~.~.t.. . ",
". . d R.R.R.R.R.R.R.R.R.R.R.R.R.R.R.R.R.R.R.R.R.R.R.R.R.R.R.R.R.R.R.R.R.R.R.R.R.R.R.R.R.R.R.R.R.R.R.R.R.R.R.R.R.R.R.R.R.R.d . . ",
". . . e.T.T.T.T.T.T.T.T.T.T.T.T.T.T.T.T.T.T.T.T.T.T.T.T.T.T.T.T.T.T.T.T.T.T.T.T.T.T.T.T.T.T.T.T.T.T.T.T.T.T.T.T.T.T.T.T.e.. . . ",
". . . s P.P.P.P.P.P.P.P.P.P.P.P.P.P.P.P.P.P.P.P.P.P.P.P.P.P.P.P.P.P.P.P.P.P.P.P.P.P.P.P.P.P.P.P.P.P.P.P.P.P.P.P.P.P.P.P.s . . . ",
". . . . q.L.L.L.L.L.L.L.L.L.L.L.L.L.L.L.L.L.L.L.L.L.L.L.L.L.L.L.L.L.L.L.L.L.L.L.L.L.L.L.L.L.L.L.L.L.L.L.L.L.L.L.L.L.L.q.. . . . ",
". . . . f K.K.K.K.K.K.K.K.K.K.K.K.K.K.K.K.K.K.K.K.K.K.K.K.K.K.K.K.K.K.K.K.K.K.K.K.K.K.K.K.K.K.K.K.K.K.K.K.K.K.K.K.K.K.f . . . . ",
". . . . . 0.D.D.D.D.D.D.D.D.D.D.D.D.D.D.D.D.D.D.D.D.D.D.D.D.D.D.D.D.D.D.D.D.D.D.D.D.D.D.D.D.D.D.D.D.D.D.D.D.D.D.D.D.0.. . . . . ",
". . . . . a J.J.J.J.J.J.J.J.J.J.J.J.J.J.J.J.J.J.J.J.J.J.J.J.J.J.J.J.J.J.J.J.J.J.J.J.J.J.J.J.J.J.J.J.J.J.J.J.J.J.J.J.a . . . . . ",
". . . . . . 7.H.H.H.H.H.H.H.H.H.H.H.H.H.H.H.H.H.H.H.H.H.H.H.H.H.H.H.H.H.H.H.H.H.H.H.H.H.H.H.H.H.H.H.H.H.H.H.H.H.H.7.. . . . . . ",
". . . . . . p G.G.G.G.G.G.G.G.G.G.G.G.G.G.G.G.G.G.G.G.G.G.G.G.G.G.G.G.G.G.G.G.G.G.G.G.G.G.G.G.G.G.G.G.G.G.G.G.G.G.p . . . . . . ",
". . . . . . . 6.F.F.F.F.F.F.F.F.F.F.F.F.F.F.F.F.F.F.F.F.F.F.F.F.F.F.F.F.F.F.F.F.F.F.F.F.F.F.F.F.F.F.F.F.F.F.F.F.6.. . . . . . . ",
". . . . . . . r M.M.M.M.M.M.M.M.M.M.M.M.M.M.M.M.M.M.M.M.M.M.M.M.M.M.M.M.M.M.M.M.M.M.M.M.M.M.M.M.M.M.M.M.M.M.M.M.r . . . . . . . ",
". . . . . . . . 5.m.m.m.m.m.m.m.m.m.m.m.m.m.m.m.m.m.m.m.m.m.m.m.m.m.m.m.m.m.m.m.m.m.m.m.m.m.m.m.m.m.m.m.m.m.m.5.. . . . . . . . ",
". . . . . . . . t n.n.n.n.n.n.n.n.n.n.n.n.n.n.n.n.n.n.n.n.n.n.n.n.n.n.n.n.n.n.n.n.n.n.n.n.n.n.n.n.n.n.n.n.n.n.t . . . . . . . . ",
". . . . . . . . . 2.b.b.b.b.b.b.b.b.b.b.b.b.b.b.b.b.b.b.b.b.b.b.b.b.b.b.b.b.b.b.b.b.b.b.b.b.b.b.b.b.b.b.b.b.2.. . . . . . . . . ",
". . . . . . . . . e v.v.v.v.v.v.v.v.v.v.v.v.v.v.v.v.v.v.v.v.v.v.v.v.v.v.v.v.v.v.v.v.v.v.v.v.v.v.v.v.v.v.v.v.e . . . . . . . . . ",
". . . . . . . . . . 1.c.c.c.c.c.c.c.c.c.c.c.c.c.c.c.c.c.c.c.c.c.c.c.c.c.c.c.c.c.c.c.c.c.c.c.c.c.c.c.c.c.c.1.. . . . . . . . . . ",
". . . . . . . . . . 0 x.x.x.x.x.x.x.x.x.x.x.x.x.x.x.x.x.x.x.x.x.x.x.x.x.x.x.x.x.x.x.x.x.x.x.x.x.x.x.x.x.x.0 . . . . . . . . . . ",
". . . . . . . . . . . <.h.h.h.h.h.h.h.h.h.h.h.h.h.h.h.h.h.h.h.h.h.h.h.h.h.h.h.h.h.h.h.h.h.h.h.h.h.h.h.h.<.. . . . . . . . . . . ",
". . . . . . . . . . . 9 g.g.g.g.g.g.g.g.g.g.g.g.g.g.g.g.g.g.g.g.g.g.g.g.g.g.g.g.g.g.g.g.g.g.g.g.g.g.g.g.9 . . . . . . . . . . . ",
". . . . . . . . . . . . ,.s.s.s.s.s.s.s.s.s.s.s.s.s.s.s.s.s.s.s.s.s.s.s.s.s.s.s.s.s.s.s.s.s.s.s.s.s.s.,.. . . . . . . . . . . . ",
". . . . . . . . . . . . 8 f.f.f.f.f.f.f.f.f.f.f.f.f.f.f.f.f.f.f.f.f.f.f.f.f.f.f.f.f.f.f.f.f.f.f.f.f.f.8 . . . . . . . . . . . . ",
". . . . . . . . . . . . . @.d.d.d.d.d.d.d.d.d.d.d.d.d.d.d.d.d.d.d.d.d.d.d.d.d.d.d.d.d.d.d.d.d.d.d.d.@.. . . . . . . . . . . . . ",
". . . . . . . . . . . . . 7 a.a.a.a.a.a.a.a.a.a.a.a.a.a.a.a.a.a.a.a.a.a.a.a.a.a.a.a.a.a.a.a.a.a.a.a.7 . . . . . . . . . . . . . ",
". . . . . . . . . . . . . . +.i.i.i.i.i.i.i.i.i.i.i.i.i.i.i.i.i.i.i.i.i.i.i.i.i.i.i.i.i.i.i.i.i.i.+.. . . . . . . . . . . . . . ",
". . . . . . . . . . . . . . 5 p.p.p.p.p.p.p.p.p.p.p.p.p.p.p.p.p.p.p.p.p.p.p.p.p.p.p.p.p.p.p.p.p.p.5 . . . . . . . . . . . . . . ",
". . . . . . . . . . . . . . . O.u.u.u.u.u.u.u.u.u.u.u.u.u.u.u.u.u.u.u.u.u.u.u.u.u.u.u.u.u.u.u.u.O.. . . . . . . . . . . . . . . ",
". . . . . . . . . . . . . . . 6 y.y.y.y.y.y.y.y.y.y.y.y.y.y.y.y.y.y.y.y.y.y.y.y.y.y.y.y.y.y.y.y.6 . . . . . . . . . . . . . . . ",
". . . . . . . . . . . . . . . . o.v v v v v v v v v v v v v v v v v v v v v v v v v v v v v v o.. . . . . . . . . . . . . . . . ",
". . . . . . . . . . . . . . . . 3 | | | | | | | | | | | | | | | | | | | | | | | | | | | | | | 3 . . . . . . . . . . . . . . . . ",
". . . . . . . . . . . . . . . . . X.} } } } } } } } } } } } } } } } } } } } } } } } } } } } X.. . . . . . . . . . . . . . . . . ",
". . . . . . . . . . . . . . . . . 2 { { { { { { { { { { { { { { { { { { { { { { { { { { { { 2 . . . . . . . . . . . . . . . . . ",
". . . . . . . . . . . . . . . . . . ..[ [ [ [ [ [ [ [ [ [ [ [ [ [ [ [ [ [ [ [ [ [ [ [ [ [ ... . . . . . . . . . . . . . . . . . ",
". . . . . . . . . . . . . . . . . . 1 ] ] ] ] ] ] ] ] ] ] ] ] ] ] ] ] ] ] ] ] ] ] ] ] ] ] 1 . . . . . . . . . . . . . . . . . . ",
". . . . . . . . . . . . . . . . . . .  .' ' ' ' ' ' ' ' ' ' ' ' ' ' ' ' ' ' ' ' ' ' ' '  .. . . . . . . . . . . . . . . . . . . ",
". . . . . . . . . . . . . . . . . . . < ` ` ` ` ` ` ` ` ` ` ` ` ` ` ` ` ` ` ` ` ` ` ` ` < . . . . . . . . . . . . . . . . . . . ",
". . . . . . . . . . . . . . . . . . . . D _ _ _ _ _ _ _ _ _ _ _ _ _ _ _ _ _ _ _ _ _ _ D . . . . . . . . . . . . . . . . . . . . ",
". . . . . . . . . . . . . . . . . . . . , ) ) ) ) ) ) ) ) ) ) ) ) ) ) ) ) ) ) ) ) ) ) , . . . . . . . . . . . . . . . . . . . . ",
". . . . . . . . . . . . . . . . . . . . . S ( ( ( ( ( ( ( ( ( ( ( ( ( ( ( ( ( ( ( ( S . . . . . . . . . . . . . . . . . . . . . ",
". . . . . . . . . . . . . . . . . . . . . > / / / / / / / / / / / / / / / / / / / / > . . . . . . . . . . . . . . . . . . . . . ",
". . . . . . . . . . . . . . . . . . . . . . A ^ ^ ^ ^ ^ ^ ^ ^ ^ ^ ^ ^ ^ ^ ^ ^ ^ ^ A . . . . . . . . . . . . . . . . . . . . . . ",
". . . . . . . . . . . . . . . . . . . . . . : ~ ~ ~ ~ ~ ~ ~ ~ ~ ~ ~ ~ ~ ~ ~ ~ ~ ~ : . . . . . . . . . . . . . . . . . . . . . . ",
". . . . . . . . . . . . . . . . . . . . . . . Z ! ! ! ! ! ! ! ! ! ! ! ! ! ! ! ! Z . . . . . . . . . . . . . . . . . . . . . . . ",
". . . . . . . . . . . . . . . . . . . . . . . ; Q Q Q Q Q Q Q Q Q Q Q Q Q Q Q Q ; . . . . . . . . . . . . . . . . . . . . . . . ",
". . . . . . . . . . . . . . . . . . . . . . . . C W W W W W W W W W W W W W W C . . . . . . . . . . . . . . . . . . . . . . . . ",
". . . . . . . . . . . . . . . . . . . . . . . . $ E E E E E E E E E E E E E E $ . . . . . . . . . . . . . . . . . . . . . . . . ",
". . . . . . . . . . . . . . . . . . . . . . . . . V R R R R R R R R R R R R V . . . . . . . . . . . . . . . . . . . . . . . . . ",
". . . . . . . . . . . . . . . . . . . . . . . . . = T T T T T T T T T T T T = . . . . . . . . . . . . . . . . . . . . . . . . . ",
". . . . . . . . . . . . . . . . . . . . . . . . . . n Y Y Y Y Y Y Y Y Y Y n . . . . . . . . . . . . . . . . . . . . . . . . . . ",
". . . . . . . . . . . . . . . . . . . . . . . . . . - U U U U U U U U U U - . . . . . . . . . . . . . . . . . . . . . . . . . . ",
". . . . . . . . . . . . . . . . . . . . . . . . . . . B F F F F F F F F B . . . . . . . . . . . . . . . . . . . . . . . . . . . ",
". . . . . . . . . . . . . . . . . . . . . . . . . . . * I I I I I I I I * . . . . . . . . . . . . . . . . . . . . . . . . . . . ",
". . . . . . . . . . . . . . . . . . . . . . . . . . . . N P P P P P P N . . . . . . . . . . . . . . . . . . . . . . . . . . . . ",
". . . . . . . . . . . . . . . . . . . . . . . . . . . . & G G G G G G & . . . . . . . . . . . . . . . . . . . . . . . . . . . . ",
". . . . . . . . . . . . . . . . . . . . . . . . . . . . . m L L L L m . . . . . . . . . . . . . . . . . . . . . . . . . . . . . ",
". . . . . . . . . . . . . . . . . . . . . . . . . . . . . % H H H H % . . . . . . . . . . . . . . . . . . . . . . . . . . . . . ",
". . . . . . . . . . . . . . . . . . . . . . . . . . . . . . M K K M . . . . . . . . . . . . . . . . . . . . . . . . . . . . . . ",
". . . . . . . . . . . . . . . . . . . . . . . . . . . . . .   J J   . . . . . . . . . . . . . . . . . . . . . . . . . . . . . . ",
". . . . . . . . . . . . . . . . . . . . . . . . . . . . . . . b b . . . . . . . . . . . . . . . . . . . . . . . . . . . . . . . "
};
